<?xml version="1.0" encoding="UTF-8"?>
<!DOCTYPE svg PUBLIC "-//W3C//DTD SVG 1.1//EN" "http://www.w3.org/Graphics/SVG/1.1/DTD/svg11.dtd">
<!-- Creator: CorelDRAW 2020 (64-Bit) -->
<svg xmlns="http://www.w3.org/2000/svg" xml:space="preserve" width="13.7795in" height="3.93701in" version="1.1" style="shape-rendering:geometricPrecision; text-rendering:geometricPrecision; image-rendering:optimizeQuality; fill-rule:evenodd; clip-rule:evenodd"
viewBox="0 0 13779.53 3937.01"
 xmlns:xlink="http://www.w3.org/1999/xlink"
 xmlns:xodm="http://www.corel.com/coreldraw/odm/2003">
 <defs>
  <style type="text/css">
   <![CDATA[
    .fil0 {fill:#022A54;fill-rule:nonzero}
   ]]>
  </style>
 </defs>
 <g id="Layer_x0020_1">
  <metadata id="CorelCorpID_0Corel-Layer"/>
  <g id="_2361276350336">
   <path class="fil0" d="M98.83 531.11c88.09,7.65 219.72,-39.22 265.92,64.15 131.3,227.04 262.93,453.73 391.91,682.1 126.98,-227.37 264.26,-448.75 392.57,-675.44 44.21,-106.7 175.85,-65.48 264.93,-71.8 -2.32,223.04 0.33,445.75 -1.99,668.8 -74.13,22.94 -147.25,48.53 -219.39,76.45 0,-97.39 0,-195.11 -0.34,-292.84 -88.42,160.22 -179.16,318.77 -270.91,477.33 -112.68,-0.33 -225.7,-0.67 -338.38,-4.99 -83.77,-160.88 -176.51,-316.78 -264.93,-475 3,288.19 -2.32,576.72 2,864.91 -73.79,0.67 -147.26,1 -220.72,1.66 -0.67,-438.44 0.33,-876.88 -0.67,-1315.32z"/>
   <path class="fil0" d="M1675.09 531.11c464.04,38.56 904.15,303.82 1143.15,705.04 123.65,197.77 192.79,426.13 213.39,657.82 -69.8,-5.98 -149.24,13.3 -209.74,-32.24 -32.57,-83.76 -42.88,-174.18 -72.47,-258.94 -132.96,-410.19 -494.62,-734.94 -917.11,-822.03 -50.52,-17.62 -122.65,-11.97 -147.25,-69.48 -17.61,-58.17 -7.64,-120.32 -9.97,-180.16z"/>
   <path class="fil0" d="M1075.76 1565.89c158.22,-185.81 425.15,-268.92 660.15,-201.44 170.86,40.89 309.14,163.21 403.2,307.47 -91.74,1 -183.81,1 -275.56,0.34 -199.11,-175.52 -542.15,-132.3 -673.11,104.37 -147.59,230.69 -16.29,572.73 249.97,641.54 233.34,78.45 487.3,-77.45 556.11,-306.48 -144.6,-3.33 -289.19,-1.66 -433.79,-1.99 10.97,-73.46 -22.6,-195.79 77.78,-216.06 192.46,-10.64 385.92,-3.33 578.39,-1 16.28,164.88 -11.31,337.72 -108.37,475 -150.58,233.02 -461.04,348.7 -726.3,264.26 -193.79,-54.18 -354.68,-204.1 -430.47,-389.58 -87.75,-224.7 -44.2,-498.6 122,-676.44z"/>
   <path class="fil0" d="M99.82 2106.38c79.78,9.97 217.73,-27.59 231.35,87.09 78.12,515.56 503.93,951.35 1018.49,1038.1 128.31,1.67 109.7,147.25 109.7,236.34 -486.64,-36.56 -945.36,-329.41 -1177.04,-759.54 -105.71,-184.15 -159.23,-392.57 -182.49,-601.99z"/>
   <path class="fil0" d="M2772.02 2229.37c42.88,-106.04 174.18,-61.17 261.93,-71.8 -0.67,437.45 -1.33,874.89 0.67,1312.33 -73.46,0.67 -146.59,1 -220.05,1 -2,-284.2 1,-568.74 -1,-852.94 -88.42,155.23 -180.5,308.47 -265.93,465.7 -112.68,2.66 -225.37,1.66 -338.39,0.67 -73.79,-129.31 -146.26,-258.94 -219.39,-388.58 62.49,-48.87 123.65,-99.72 182.82,-152.57 67.15,120.99 136.95,240.66 205.43,360.99 130.3,-225.7 261.93,-450.41 393.9,-674.78z"/>
   <path class="fil0" d="M1719.3 2803.1c74.79,-23.6 147.92,-50.52 221.05,-78.45 -1.33,248.64 1,496.95 1.33,745.59 -74.46,0 -148.59,0.33 -222.71,0.33 1.33,-222.71 1.99,-445.08 0.33,-667.46z"/>
  </g>
  <polygon class="fil0" points="4970.44,1391.27 4970.44,2828.88 4694.17,2828.88 4694.17,1824.58 4278.06,2648.15 4180.12,2648.15 3764.01,1824.58 3764.01,2828.88 3492.98,2828.88 3492.98,1391.27 3858.45,1391.27 4230.82,2120.34 4605.02,1391.27 "/>
  <path class="fil0" d="M6256.11 1799.93c-29.67,-28.56 -148.74,-136.66 -313.28,-129.37 -218.2,9.69 -407.16,217.42 -410.96,445.86 -2.79,169.61 96.4,351.33 268.35,416.85 204.45,77.9 462.3,-27.26 572.94,-262.07 -180.47,-1.62 -360.95,-3.24 -541.42,-4.85 23.79,-79.94 47.59,-159.88 71.39,-239.81 249.18,1.04 498.36,2.08 747.54,3.11 4.48,39.2 39.7,402.18 -237.31,655.32 -36.84,33.66 -217.77,192.03 -470.7,192.39l-1.06 0c-16.7,-0.01 -33.71,-0.7 -51.02,-2.17 -381.66,-32.34 -658.47,-418.66 -670.56,-765.13 -7.07,-202.79 77.84,-354.97 111.02,-408.37 18.46,-29.75 211.5,-329.66 564.8,-352.46 294.04,-18.96 581.3,161.59 715.66,454.11 -118.46,-1.14 -236.94,-2.28 -355.39,-3.42z"/>
  <polygon class="fil0" points="8388.6,1391.27 8388.6,2828.88 8097,2828.88 8097,1824.58 7657.8,2648.15 7554.45,2648.15 7115.22,1824.58 7115.22,2828.88 6829.18,2828.88 6829.18,1391.27 7214.92,1391.27 7607.95,2120.34 8002.9,1391.27 "/>
  <polygon class="fil0" points="9165.4,2535.2 9787.82,2535.2 9787.82,2828.88 8887.37,2828.88 8887.37,1391.27 9165.4,1391.27 "/>
  <polygon class="fil0" points="10960.79,1680.84 10261.43,1680.84 10261.43,1962.23 10910.08,1962.23 10910.08,2239.44 10261.43,2239.44 10261.43,2537.23 10973.06,2537.23 10973.06,2828.89 9983.41,2828.89 9983.41,1391.28 10960.79,1391.28 "/>
  <polygon class="fil0" points="12322.55,1391.27 12322.55,2828.88 12034.03,2828.88 11464.08,1904.68 11464.08,2828.88 11189.52,2828.88 11189.52,1391.27 11479.76,1391.27 12049.77,2313.4 12049.77,1391.27 "/>
  <path class="fil0" d="M13483.17 1783.52c-134.6,-82.14 -298.97,-133.49 -412.63,-133.49 -106.67,0 -176.59,45.2 -176.59,135.56 0,59.52 26.25,84.17 194.09,137.6l122.39 39.04c277.94,92.38 410.83,168.35 419.6,433.17l0 0.66c-0.24,289.28 -197.77,453.37 -517.52,453.37 -208.07,0 -410.9,-69.85 -571.72,-195.14l125.87 -246.41c146.87,100.64 326.98,158.12 468.59,158.12 124.11,0 199.3,-45.2 199.3,-151.98 0,-71.86 -33.2,-100.63 -192.33,-145.81l-129.36 -39.04c-285,-82.13 -414.39,-166.37 -419.64,-418.96 0,-145.8 45.45,-254.66 138.14,-328.56 92.68,-73.96 213.3,-110.9 361.92,-110.9 181.84,0 368.92,57.48 508.81,156.04l-118.91 256.73z"/>
 </g>
</svg>
